<svg width="51" height="51" viewBox="0 0 51 51" fill="none" xmlns="http://www.w3.org/2000/svg">
<path d="M14.875 18.0625C14.875 20.9971 12.4971 23.375 9.5625 23.375C6.62787 23.375 4.25 20.9971 4.25 18.0625C4.25 15.1279 6.62787 12.75 9.5625 12.75C12.4971 12.75 14.875 15.1279 14.875 18.0625ZM0 31.875V42.5H4.25V51H8.5V42.5H10.625V38.25H4.25V31.875C4.25 30.7041 5.20412 29.75 6.375 29.75H10.625V25.5H6.375C2.86025 25.5 0 28.3603 0 31.875ZM24.4375 6.375C21.5029 6.375 19.125 8.75288 19.125 11.6875C19.125 14.6221 21.5029 17 24.4375 17C27.3721 17 29.75 14.6221 29.75 11.6875C29.75 8.75288 27.3721 6.375 24.4375 6.375ZM14.875 25.5V40.375H19.125V51H23.375V40.375H25.5V36.125H19.125V25.5C19.125 24.3291 20.0791 23.375 21.25 23.375H25.5V19.125H21.25C17.7353 19.125 14.875 21.9853 14.875 25.5ZM39.3125 10.625C42.2471 10.625 44.625 8.24712 44.625 5.3125C44.625 2.37787 42.2471 0 39.3125 0C36.3779 0 34 2.37787 34 5.3125C34 8.24712 36.3779 10.625 39.3125 10.625ZM48.875 38.25H44.625V51H40.375V38.25H38.25V51H34V38.25H29.75V19.125C29.75 15.6102 32.6102 12.75 36.125 12.75H42.5C46.0148 12.75 48.875 15.6102 48.875 19.125V38.25ZM44.625 19.125C44.625 17.9541 43.6709 17 42.5 17H36.125C34.9541 17 34 17.9541 34 19.125V34H44.625V19.125Z" fill="#5EBC67"/>
</svg>
