<svg width="55" height="55" viewBox="0 0 55 55" fill="none" xmlns="http://www.w3.org/2000/svg">
<path d="M26.0405 14.4453C24.0147 11.8402 21.17 10.1317 18.0081 9.52127C18.6939 8.57865 19.1063 7.35192 19.1063 6.01562C19.1063 3.09717 17.1217 0.659375 14.6094 0.659375C12.097 0.659375 10.1125 3.09717 10.1125 6.01562C10.1125 7.35182 10.5248 8.57852 11.2106 9.5205C8.04796 10.1317 5.20402 11.8402 3.17825 14.4453C1.55333 16.5335 0.659375 19.1402 0.659375 21.786C0.659375 24.5506 1.10284 27.2833 1.97674 29.9059L1.97678 29.906C2.39413 31.1562 3.55927 31.9969 4.87695 31.9969C5.27621 31.9969 5.66312 31.9133 6.02129 31.7664C6.22569 32.2022 6.45764 32.6278 6.72049 33.0409L9.08252 48.7844H8.59375C7.06189 48.7844 5.81563 50.0306 5.81563 51.5625C5.81563 53.0944 7.06189 54.3406 8.59375 54.3406H20.625C22.1569 54.3406 23.4031 53.0944 23.4031 51.5625C23.4031 50.0306 22.1569 48.7844 20.625 48.7844H20.1362L22.4974 33.0428C22.7604 32.6309 22.9937 32.2045 23.1986 31.767C23.5564 31.9133 23.9425 31.9969 24.3418 31.9969C25.6594 31.9969 26.8255 31.1563 27.242 29.9068L27.242 29.9067C28.1159 27.2833 28.5594 24.5506 28.5594 21.786C28.5594 19.1402 27.6654 16.5335 26.0405 14.4453ZM20.625 52.2219H15.6687V31.7969V31.5969H15.4688H13.75H13.55V31.7969V52.2219H8.59375C8.23056 52.2219 7.93437 51.9263 7.93437 51.5625C7.93437 51.1987 8.23056 50.9031 8.59375 50.9031H10.3125C10.6208 50.9031 10.9143 50.7686 11.1156 50.5344C11.3168 50.3004 11.4057 49.991 11.3602 49.6862L11.3602 49.686L8.78226 32.4997C8.78223 32.4995 8.7822 32.4993 8.78217 32.4991C8.75887 32.338 8.68412 32.1705 8.60225 32.0472L8.60201 32.0468C7.603 30.5492 7.075 28.8054 7.075 27.005C7.075 25.7662 7.32216 24.5624 7.80992 23.4246L7.80992 23.4246L9.56688 19.3247C9.56698 19.3245 9.56707 19.3243 9.56717 19.324C9.62478 19.1915 9.65312 19.0484 9.65312 18.9062V16.3281V16.1281H9.45312H7.73438H7.53438V16.3281V18.689L5.86273 22.5898C5.26168 23.9923 4.95625 25.4783 4.95625 27.005C4.95625 27.9444 5.07781 28.8683 5.30714 29.7661C5.17346 29.838 5.02678 29.8781 4.87695 29.8781C4.47233 29.8781 4.11489 29.6204 3.98739 29.2365L3.98732 29.2363C3.18543 26.8298 2.77813 24.3229 2.77813 21.786C2.77813 19.6099 3.51438 17.4643 4.85093 15.7453C7.01305 12.9659 10.2711 11.3719 13.7938 11.3719H15.4249C18.9468 11.3719 22.2057 12.9659 24.3678 15.7454C25.7044 17.4643 26.4406 19.6099 26.4406 21.786C26.4406 24.3228 26.0333 26.8289 25.2314 29.2363C25.103 29.6207 24.7461 29.8781 24.3418 29.8781C24.192 29.8781 24.0459 29.838 23.9123 29.7661C24.1402 28.8705 24.2625 27.9452 24.2625 27.005C24.2625 25.4783 23.9571 23.9923 23.356 22.5898L21.6844 18.689V16.3281V16.1281H21.4844H19.7656H19.5656V16.3281V18.9062C19.5656 19.0485 19.594 19.1916 19.6516 19.3242C19.6517 19.3244 19.6518 19.3245 19.6519 19.3247L21.4088 23.4246L21.4088 23.4246C21.8966 24.5624 22.1437 25.7671 22.1437 27.005C22.1437 28.805 21.616 30.5477 20.6076 32.061C20.5192 32.1917 20.46 32.3416 20.4366 32.4988L17.8585 49.686L17.8585 49.6862C17.813 49.991 17.9019 50.3004 18.1032 50.5345C18.3045 50.7686 18.5979 50.9031 18.9062 50.9031H20.625C20.9882 50.9031 21.2844 51.1987 21.2844 51.5625C21.2844 51.9263 20.9882 52.2219 20.625 52.2219ZM14.6094 2.77813C15.2428 2.77813 15.8329 3.12126 16.2715 3.70597C16.71 4.29065 16.9875 5.10697 16.9875 6.01562C16.9875 6.92428 16.71 7.7406 16.2715 8.32528C15.8329 8.90999 15.2428 9.25313 14.6094 9.25313C13.9759 9.25313 13.3859 8.90999 12.9473 8.32528C12.5087 7.7406 12.2312 6.92428 12.2312 6.01562C12.2312 5.10697 12.5087 4.29065 12.9473 3.70597C13.3859 3.12126 13.9759 2.77813 14.6094 2.77813Z" fill="#5EBC67" stroke="#5EBC67" stroke-width="0.4"/>
<path d="M36.7762 31.9968C35.3761 31.9883 34.1646 30.9895 33.8901 29.6154C33.5086 27.711 33.3156 25.76 33.3156 23.8184V19.1134C33.3156 16.4804 34.3422 14.0036 36.2041 12.1416C37.4202 10.9256 38.9013 10.0762 40.5137 9.62728C39.7794 8.67189 39.3313 7.40426 39.3313 6.01562C39.3313 3.09717 41.3158 0.659375 43.8281 0.659375C46.3405 0.659375 48.325 3.09717 48.325 6.01562C48.325 7.40426 47.8769 8.67189 47.1426 9.62728C48.755 10.0762 50.2361 10.9256 51.4521 12.1416C53.315 14.0045 54.3406 16.4813 54.3406 19.1151V23.8184C54.3406 25.7601 54.1468 27.7111 53.7661 29.6154C53.7661 29.6154 53.7661 29.6154 53.7661 29.6155L53.57 29.5763C53.3146 30.855 52.188 31.7856 50.8857 31.7968L36.7762 31.9968ZM36.7762 31.9968C36.7966 32.7756 36.8386 33.5577 36.9157 34.3321L36.9157 34.3322L38.3606 48.7844H37.8125C36.2806 48.7844 35.0344 50.0306 35.0344 51.5625C35.0344 53.0944 36.2806 54.3406 37.8125 54.3406H49.8438C51.3756 54.3406 52.6219 53.0944 52.6219 51.5625C52.6219 50.0306 51.3756 48.7844 49.8438 48.7844H49.2956L50.7414 34.333L50.7414 34.3329C50.8186 33.5574 50.8599 32.7756 50.8808 31.9968L36.7762 31.9968ZM51.6887 29.2001L51.6886 29.2002C51.6102 29.5931 51.2626 29.8781 50.8621 29.8781C50.8591 29.8781 50.8562 29.8781 50.8532 29.878C50.7582 28.4565 50.5014 27.0515 50.068 25.6876L50.5273 22.4684C50.777 20.7264 50.9031 18.9501 50.9031 17.1875V16.9875H50.7031H48.9844H48.7844V17.1875C48.7844 18.8496 48.6656 20.5253 48.4306 22.1676L48.4306 22.1676L47.9356 25.6309L48.1336 25.6592L47.9356 25.6309C47.9123 25.7938 47.9271 25.9601 47.9791 26.1161L47.9791 26.1161C48.5137 27.719 48.7844 29.3881 48.7844 31.0767C48.7844 32.0893 48.7331 33.1139 48.6324 34.1213L47.0709 49.7379L47.0709 49.738C47.0413 50.0353 47.1385 50.3328 47.339 50.5545L47.339 50.5546C47.5403 50.7771 47.8254 50.9031 48.125 50.9031H49.8438C50.2069 50.9031 50.5031 51.1987 50.5031 51.5625C50.5031 51.9263 50.2069 52.2219 49.8438 52.2219H44.8875V31.7969V31.5969H44.6875H42.9688H42.7688V31.7969V52.2219H37.8125C37.4493 52.2219 37.1531 51.9263 37.1531 51.5625C37.1531 51.1987 37.4493 50.9031 37.8125 50.9031H39.5312C39.8308 50.9031 40.1159 50.7771 40.3172 50.5546L40.3172 50.5545C40.5177 50.3329 40.615 50.0363 40.5853 49.7381L40.5853 49.7379L39.0239 34.1214C38.9231 33.1139 38.8719 32.0893 38.8719 31.0767C38.8719 29.3881 39.1426 27.719 39.6771 26.1161L39.6772 26.1161C39.7292 25.9601 39.7439 25.7938 39.7206 25.6309L39.5227 25.6592L39.7206 25.6309L39.2256 22.1676L39.2256 22.1676C38.9907 20.5253 38.8719 18.8496 38.8719 17.1875V16.9875H38.6719H36.9531H36.7531V17.1875C36.7531 18.9501 36.8793 20.7264 37.129 22.4675L37.5883 25.6868C37.1556 27.0509 36.898 28.4561 36.803 29.878C36.8 29.8781 36.7971 29.8781 36.7941 29.8781C36.3937 29.8781 36.0461 29.5932 35.9676 29.1994L35.9676 29.1992C35.6135 27.4316 35.4344 25.6211 35.4344 23.8184V19.1134C35.4344 17.0454 36.2392 15.1017 37.7021 13.6397L37.7021 13.6396C39.1651 12.1767 41.108 11.3719 43.1767 11.3719H44.4787C46.5474 11.3719 48.4912 12.1767 49.9541 13.6396C51.4171 15.1026 52.2219 17.0463 52.2219 19.1151V23.8184C52.2219 25.6211 52.0427 27.4316 51.6887 29.2001ZM43.8281 2.77813C44.4616 2.77813 45.0516 3.12126 45.4902 3.70597C45.9288 4.29065 46.2063 5.10697 46.2063 6.01562C46.2063 6.92428 45.9288 7.7406 45.4902 8.32528C45.0516 8.90999 44.4616 9.25313 43.8281 9.25313C43.1947 9.25313 42.6046 8.90999 42.166 8.32528C41.7275 7.7406 41.45 6.92428 41.45 6.01562C41.45 5.10697 41.7275 4.29065 42.166 3.70597C42.6046 3.12126 43.1947 2.77813 43.8281 2.77813Z" fill="#5EBC67" stroke="#5EBC67" stroke-width="0.4"/>
<path d="M30.0781 1.51875H29.8781V1.71875V53.2812V53.4813H30.0781H31.7969H31.9969V53.2812V1.71875V1.51875H31.7969H30.0781Z" fill="#5EBC67" stroke="#5EBC67" stroke-width="0.4"/>
</svg>
