<svg width="45" height="44" viewBox="0 0 45 44" fill="none" xmlns="http://www.w3.org/2000/svg">
<path d="M9.375 24.375C7.5208 24.375 5.70824 24.9248 4.16653 25.955C2.62482 26.9851 1.42321 28.4493 0.713634 30.1623C0.00406204 31.8754 -0.181594 33.7604 0.180142 35.579C0.541879 37.3976 1.43476 39.068 2.74588 40.3791C4.057 41.6903 5.72746 42.5831 7.54603 42.9449C9.3646 43.3066 11.2496 43.121 12.9627 42.4114C14.6757 41.7018 16.1399 40.5002 17.17 38.9585C18.2002 37.4168 18.75 35.6042 18.75 33.75C18.747 31.2645 17.7584 28.8817 16.0008 27.1242C14.2433 25.3667 11.8605 24.378 9.375 24.375ZM9.375 39.375C8.26248 39.375 7.17495 39.0451 6.24992 38.427C5.32489 37.8089 4.60392 36.9304 4.17818 35.9026C3.75244 34.8748 3.64104 33.7438 3.85809 32.6526C4.07513 31.5615 4.61086 30.5592 5.39753 29.7725C6.1842 28.9859 7.18648 28.4501 8.27762 28.2331C9.36876 28.016 10.4998 28.1274 11.5276 28.5532C12.5554 28.9789 13.4339 29.6999 14.052 30.6249C14.6701 31.55 15 32.6375 15 33.75C15 35.2419 14.4074 36.6726 13.3525 37.7275C12.2976 38.7824 10.8668 39.375 9.375 39.375ZM35.625 24.375C33.7708 24.375 31.9582 24.9248 30.4165 25.955C28.8748 26.9851 27.6732 28.4493 26.9636 30.1623C26.2541 31.8754 26.0684 33.7604 26.4301 35.579C26.7919 37.3976 27.6848 39.068 28.9959 40.3791C30.307 41.6903 31.9775 42.5831 33.796 42.9449C35.6146 43.3066 37.4996 43.121 39.2127 42.4114C40.9257 41.7018 42.3899 40.5002 43.42 38.9585C44.4502 37.4168 45 35.6042 45 33.75C44.997 31.2645 44.0084 28.8817 42.2508 27.1242C40.4933 25.3667 38.1105 24.378 35.625 24.375ZM35.625 39.375C34.5125 39.375 33.4249 39.0451 32.4999 38.427C31.5749 37.8089 30.8539 36.9304 30.4282 35.9026C30.0024 34.8748 29.891 33.7438 30.1081 32.6526C30.3251 31.5615 30.8609 30.5592 31.6475 29.7725C32.4342 28.9859 33.4365 28.4501 34.5276 28.2331C35.6188 28.016 36.7498 28.1274 37.7776 28.5532C38.8054 28.9789 39.6839 29.6999 40.302 30.6249C40.9201 31.55 41.25 32.6375 41.25 33.75C41.25 35.2419 40.6574 36.6726 39.6025 37.7275C38.5476 38.7824 37.1168 39.375 35.625 39.375ZM18.7819 19.7513C18.7793 19.501 18.8278 19.2528 18.9245 19.0219C19.0213 18.7911 19.1641 18.5824 19.3444 18.4088C19.6594 18.1088 24.3244 13.8281 24.3244 13.8281L32.5744 21.96L35.1994 19.29L25.6819 9.915L25.5263 9.77625C23.509 8.32264 21.0919 7.52765 18.6056 7.5C15.9769 7.5 9.375 9.73125 9.375 15C9.375 16.4918 9.96764 17.9226 11.0225 18.9775C12.0774 20.0324 13.5082 20.625 15 20.625C15.045 20.625 15.0844 20.6156 15.1294 20.6138C15.3308 21.9237 15.9906 23.1197 16.9913 23.9888L20.625 27.1106V35.625H24.375V25.3894L19.4325 21.1444C19.2306 20.9723 19.0681 20.7589 18.9558 20.5185C18.8436 20.2782 18.7843 20.0165 18.7819 19.7513ZM13.125 15C13.125 12.7238 17.1975 11.25 18.6056 11.25C19.4601 11.2545 20.3081 11.3983 21.1163 11.6756C21.1163 11.6756 16.7775 15.6731 16.7269 15.7219C16.0106 16.4025 15.4219 16.875 15 16.875C14.5027 16.875 14.0258 16.6775 13.6742 16.3258C13.3225 15.9742 13.125 15.4973 13.125 15ZM26.25 4.6875C26.25 3.7604 26.5249 2.85412 27.04 2.08327C27.5551 1.31241 28.2871 0.711603 29.1437 0.356817C30.0002 0.00203102 30.9427 -0.0907971 31.852 0.0900711C32.7613 0.270939 33.5965 0.717381 34.2521 1.37294C34.9076 2.0285 35.3541 2.86373 35.5349 3.77302C35.7158 4.6823 35.623 5.6248 35.2682 6.48133C34.9134 7.33786 34.3126 8.06995 33.5417 8.58502C32.7709 9.10009 31.8646 9.375 30.9375 9.375C29.6943 9.375 28.502 8.88114 27.6229 8.00207C26.7439 7.12299 26.25 5.93071 26.25 4.6875Z" fill="#5EBC67"/>
</svg>
