<svg width="45" height="45" viewBox="0 0 45 45" fill="none" xmlns="http://www.w3.org/2000/svg">
<path d="M41.7994 20.0756C42.165 20.4412 42.645 20.625 43.125 20.625C43.605 20.625 44.085 20.4412 44.4506 20.0756C45.1838 19.3425 45.1838 18.1575 44.4506 17.4244L27.5756 0.549355C26.8425 -0.18377 25.6575 -0.18377 24.9244 0.549355C24.1912 1.28248 24.1912 2.46748 24.9244 3.20061L26.7337 5.00998L2.74687 28.995C0.976875 30.765 0 33.12 0 35.625C0 38.13 0.976875 40.4831 2.74687 42.255C4.51687 44.0269 6.87 45 9.375 45C11.88 45 14.2331 44.025 16.0031 42.255L39.99 18.2681L41.7994 20.0775V20.0756ZM13.3519 39.6037C11.2275 41.7281 7.5225 41.7281 5.39812 39.6037C3.20437 37.41 3.20437 33.8419 5.39812 31.6481L20.0456 17.0006L28.0012 24.9562L13.3537 39.6037H13.3519ZM30.6506 22.305L22.695 14.3494L29.3831 7.66123L37.3387 15.6169L30.6506 22.305ZM40.4119 29.3137C38.8106 27.7444 36.1931 27.7444 34.5881 29.3137C34.5412 29.3587 32.1975 32.1994 32.1975 32.1994C30.78 33.615 30 35.4994 30 37.5019C30 39.5044 30.78 41.3887 32.1975 42.8044C33.615 44.2219 35.4975 45.0019 37.5 45.0019C39.5025 45.0019 41.385 44.2219 42.8025 42.8044C44.22 41.3887 45 39.5044 45 37.5019C45 35.4994 44.22 33.615 42.9225 32.3287C42.9225 32.3287 40.4625 29.3606 40.4137 29.3137H40.4119ZM40.1494 40.1531C38.7319 41.5706 36.2644 41.5706 34.8469 40.1531C34.1381 39.4444 33.7481 38.5031 33.7481 37.5019C33.7481 36.5006 34.1381 35.5594 34.965 34.7212L37.2525 31.9575C37.4025 31.8469 37.6012 31.8506 37.7456 31.9575L40.1494 34.8506C40.8581 35.5594 41.2481 36.5006 41.2481 37.5019C41.2481 38.5031 40.8581 39.4444 40.1494 40.1531Z" fill="#5EBC67"/>
</svg>
