<svg width="35" height="45" viewBox="0 0 35 45" fill="none" xmlns="http://www.w3.org/2000/svg">
<path d="M11.875 16.875C11.875 16.3777 12.0725 15.9008 12.4242 15.5492C12.7758 15.1975 13.2527 15 13.75 15H15.625V13.125C15.625 12.6277 15.8225 12.1508 16.1742 11.7992C16.5258 11.4475 17.0027 11.25 17.5 11.25C17.9973 11.25 18.4742 11.4475 18.8258 11.7992C19.1775 12.1508 19.375 12.6277 19.375 13.125V15H21.25C21.7473 15 22.2242 15.1975 22.5758 15.5492C22.9275 15.9008 23.125 16.3777 23.125 16.875C23.125 17.3723 22.9275 17.8492 22.5758 18.2008C22.2242 18.5525 21.7473 18.75 21.25 18.75H19.375V20.625C19.375 21.1223 19.1775 21.5992 18.8258 21.9508C18.4742 22.3025 17.9973 22.5 17.5 22.5C17.0027 22.5 16.5258 22.3025 16.1742 21.9508C15.8225 21.5992 15.625 21.1223 15.625 20.625V18.75H13.75C13.2527 18.75 12.7758 18.5525 12.4242 18.2008C12.0725 17.8492 11.875 17.3723 11.875 16.875ZM25 26.25H10C9.50272 26.25 9.02581 26.4475 8.67418 26.7992C8.32254 27.1508 8.125 27.6277 8.125 28.125C8.125 28.6223 8.32254 29.0992 8.67418 29.4508C9.02581 29.8025 9.50272 30 10 30H25C25.4973 30 25.9742 29.8025 26.3258 29.4508C26.6775 29.0992 26.875 28.6223 26.875 28.125C26.875 27.6277 26.6775 27.1508 26.3258 26.7992C25.9742 26.4475 25.4973 26.25 25 26.25ZM17.5 33.75H10C9.50272 33.75 9.02581 33.9475 8.67418 34.2992C8.32254 34.6508 8.125 35.1277 8.125 35.625C8.125 36.1223 8.32254 36.5992 8.67418 36.9508C9.02581 37.3025 9.50272 37.5 10 37.5H17.5C17.9973 37.5 18.4742 37.3025 18.8258 36.9508C19.1775 36.5992 19.375 36.1223 19.375 35.625C19.375 35.1277 19.1775 34.6508 18.8258 34.2992C18.4742 33.9475 17.9973 33.75 17.5 33.75ZM34.375 13.125V35.625C34.372 38.1105 33.3833 40.4933 31.6258 42.2508C29.8683 44.0083 27.4855 44.997 25 45H10C7.51451 44.997 5.13167 44.0083 3.37416 42.2508C1.61665 40.4933 0.627977 38.1105 0.625 35.625V13.125C0.627977 10.6395 1.61665 8.25667 3.37416 6.49916C5.13167 4.74165 7.51451 3.75298 10 3.75H10.3206C10.7098 2.65405 11.4286 1.70533 12.3782 1.03396C13.3279 0.36258 14.462 0.0014189 15.625 0L19.375 0C20.538 0.0014189 21.6721 0.36258 22.6218 1.03396C23.5714 1.70533 24.2902 2.65405 24.6794 3.75H25C27.4855 3.75298 29.8683 4.74165 31.6258 6.49916C33.3833 8.25667 34.372 10.6395 34.375 13.125ZM30.625 13.125C30.625 11.6332 30.0324 10.2024 28.9775 9.14752C27.9226 8.09263 26.4918 7.5 25 7.5H23.125C22.6277 7.5 22.1508 7.30246 21.7992 6.95083C21.4475 6.59919 21.25 6.12228 21.25 5.625C21.25 5.12772 21.0525 4.65081 20.7008 4.29917C20.3492 3.94754 19.8723 3.75 19.375 3.75H15.625C15.1277 3.75 14.6508 3.94754 14.2992 4.29917C13.9475 4.65081 13.75 5.12772 13.75 5.625C13.75 6.12228 13.5525 6.59919 13.2008 6.95083C12.8492 7.30246 12.3723 7.5 11.875 7.5H10C8.50816 7.5 7.07742 8.09263 6.02252 9.14752C4.96763 10.2024 4.375 11.6332 4.375 13.125V35.625C4.375 37.1168 4.96763 38.5476 6.02252 39.6025C7.07742 40.6574 8.50816 41.25 10 41.25H25C26.4918 41.25 27.9226 40.6574 28.9775 39.6025C30.0324 38.5476 30.625 37.1168 30.625 35.625V13.125Z" fill="#5EBC67"/>
</svg>
