<svg width="57" height="57" viewBox="0 0 57 57" fill="none" xmlns="http://www.w3.org/2000/svg">
<path d="M29.438 30.2812H18.127C17.8142 30.2814 17.5069 30.1992 17.2359 30.0428C16.965 29.8865 16.74 29.6615 16.5836 29.3906L10.9281 19.5938C10.7718 19.323 10.6895 19.0158 10.6895 18.7031C10.6895 18.3905 10.7718 18.0833 10.9281 17.8125L16.5836 8.01563C16.74 7.74472 16.965 7.51978 17.2359 7.36343C17.5069 7.20709 17.8142 7.12485 18.127 7.125H29.438C29.7506 7.12501 30.0578 7.20732 30.3286 7.36365C30.5993 7.51999 30.8242 7.74485 30.9805 8.01563L36.6369 17.8125C36.7927 18.0835 36.8747 18.3906 36.8747 18.7031C36.8747 19.0157 36.7927 19.3228 36.6369 19.5938L30.9805 29.3906C30.8242 29.6614 30.5993 29.8863 30.3286 30.0426C30.0578 30.1989 29.7506 30.2812 29.438 30.2812ZM19.153 26.7188H28.4111L33.0423 18.7031L28.4111 10.6875H19.153L14.5262 18.7031L19.153 26.7188Z" fill="#5EBC67"/>
<path d="M26.3523 24.9374H21.209C20.7366 24.9374 20.2835 24.7497 19.9495 24.4156C19.6154 24.0816 19.4277 23.6285 19.4277 23.1561C19.4277 22.6837 19.6154 22.2306 19.9495 21.8966C20.2835 21.5625 20.7366 21.3749 21.209 21.3749H25.3246L27.3801 17.8124C27.4971 17.6097 27.6528 17.4321 27.8384 17.2897C28.024 17.1472 28.2358 17.0427 28.4618 16.9821C28.6878 16.9216 28.9235 16.9061 29.1555 16.9366C29.3874 16.9671 29.6111 17.043 29.8138 17.16C30.0164 17.2769 30.194 17.4327 30.3364 17.6183C30.4789 17.8039 30.5834 18.0157 30.644 18.2417C30.7046 18.4677 30.72 18.7034 30.6895 18.9353C30.659 19.1673 30.5831 19.391 30.4661 19.5936L27.8949 24.0467C27.7386 24.3175 27.5137 24.5424 27.2429 24.6987C26.9722 24.855 26.665 24.9373 26.3523 24.9374Z" fill="#5EBC67"/>
<path d="M29.438 49.875H18.127C17.8142 49.8751 17.5069 49.7929 17.2359 49.6366C16.965 49.4802 16.74 49.2553 16.5836 48.9844L10.9281 39.1875C10.7718 38.9167 10.6895 38.6095 10.6895 38.2969C10.6895 37.9842 10.7718 37.677 10.9281 37.4062L16.5836 27.6094C16.74 27.3385 16.965 27.1135 17.2359 26.9572C17.5069 26.8008 17.8142 26.7186 18.127 26.7188H29.438C29.7506 26.7188 30.0578 26.8011 30.3286 26.9574C30.5993 27.1137 30.8242 27.3386 30.9805 27.6094L36.6369 37.4062C36.7927 37.6772 36.8747 37.9843 36.8747 38.2969C36.8747 38.6094 36.7927 38.9165 36.6369 39.1875L30.9805 48.9844C30.8242 49.2552 30.5993 49.48 30.3286 49.6363C30.0578 49.7927 29.7506 49.875 29.438 49.875ZM19.153 46.3125H28.4111L33.0423 38.2969L28.4111 30.2812H19.153L14.5262 38.2969L19.153 46.3125Z" fill="#5EBC67"/>
<path d="M18.6372 40.0781C18.325 40.0772 18.0185 39.9942 17.7485 39.8375C17.4784 39.6807 17.2543 39.4558 17.0986 39.1852C16.9429 38.9145 16.8611 38.6077 16.8613 38.2955C16.8616 37.9833 16.9439 37.6766 17.1 37.4062L19.6712 32.9531C19.8275 32.6823 20.0524 32.4575 20.3232 32.3012C20.5939 32.1448 20.9011 32.0625 21.2138 32.0625H26.3571C26.8295 32.0625 27.2826 32.2502 27.6167 32.5842C27.9507 32.9183 28.1384 33.3713 28.1384 33.8438C28.1384 34.3162 27.9507 34.7692 27.6167 35.1033C27.2826 35.4373 26.8295 35.625 26.3571 35.625H22.2424L20.1815 39.1875C20.0251 39.4585 19.7999 39.6836 19.5288 39.8399C19.2577 39.9963 18.9502 40.0784 18.6372 40.0781Z" fill="#5EBC67"/>
<path d="M46.3598 40.0781H35.0489C34.7361 40.0783 34.4287 39.996 34.1578 39.8397C33.8868 39.6833 33.6618 39.4584 33.5054 39.1875L27.85 29.3906C27.6936 29.1198 27.6113 28.8127 27.6113 28.5C27.6113 28.1873 27.6936 27.8802 27.85 27.6094L33.5054 17.8125C33.6618 17.5416 33.8868 17.3167 34.1578 17.1603C34.4287 17.004 34.7361 16.9217 35.0489 16.9219H46.3598C46.6725 16.9219 46.9797 17.0042 47.2504 17.1605C47.5212 17.3169 47.7461 17.5417 47.9024 17.8125L53.5588 27.6094C53.7146 27.8803 53.7966 28.1874 53.7966 28.5C53.7966 28.8126 53.7146 29.1197 53.5588 29.3906L47.9024 39.1875C47.7461 39.4583 47.5212 39.6831 47.2504 39.8395C46.9797 39.9958 46.6725 40.0781 46.3598 40.0781ZM36.0749 36.5156H45.3329L49.9642 28.5L45.3329 20.4844H36.0749L31.4481 28.5L36.0749 36.5156Z" fill="#5EBC67"/>
<path d="M35.5591 30.2812C35.2469 30.2803 34.9404 30.1973 34.6703 30.0406C34.4003 29.8839 34.1762 29.6589 34.0205 29.3883C33.8648 29.1177 33.783 28.8109 33.7832 28.4987C33.7834 28.1864 33.8657 27.8798 34.0219 27.6094L36.5931 23.1562C36.7494 22.8855 36.9743 22.6606 37.245 22.5043C37.5158 22.3479 37.823 22.2656 38.1356 22.2656H43.279C43.7514 22.2656 44.2045 22.4533 44.5385 22.7873C44.8726 23.1214 45.0603 23.5745 45.0603 24.0469C45.0603 24.5193 44.8726 24.9724 44.5385 25.3064C44.2045 25.6405 43.7514 25.8281 43.279 25.8281H39.1643L37.1034 29.3906C36.9469 29.6617 36.7218 29.8867 36.4507 30.043C36.1796 30.1994 35.872 30.2816 35.5591 30.2812Z" fill="#5EBC67"/>
<path d="M12.4684 55.2188C12.1161 55.2188 11.7718 55.1143 11.479 54.9185C11.1861 54.7228 10.9579 54.4446 10.8231 54.1192C10.6883 53.7938 10.653 53.4357 10.7217 53.0902C10.7904 52.7447 10.96 52.4274 11.209 52.1782L16.5528 46.8345C16.8887 46.51 17.3387 46.3305 17.8057 46.3345C18.2727 46.3386 18.7195 46.5259 19.0498 46.8562C19.38 47.1864 19.5674 47.6332 19.5714 48.1002C19.5755 48.5673 19.3959 49.0172 19.0715 49.3532L13.7277 54.6969C13.5626 54.8627 13.3663 54.9941 13.1502 55.0837C12.934 55.1732 12.7023 55.2192 12.4684 55.2188Z" fill="#5EBC67"/>
<path d="M12.4688 20.4844H4.45312C3.98071 20.4844 3.52764 20.2967 3.19359 19.9627C2.85954 19.6286 2.67188 19.1755 2.67188 18.7031C2.67188 18.2307 2.85954 17.7776 3.19359 17.4436C3.52764 17.1095 3.98071 16.9219 4.45312 16.9219H12.4688C12.9412 16.9219 13.3942 17.1095 13.7283 17.4436C14.0623 17.7776 14.25 18.2307 14.25 18.7031C14.25 19.1755 14.0623 19.6286 13.7283 19.9627C13.3942 20.2967 12.9412 20.4844 12.4688 20.4844Z" fill="#5EBC67"/>
<path d="M29.3902 10.6876C29.038 10.6875 28.6937 10.583 28.4008 10.3873C28.108 10.1915 27.8797 9.91337 27.7449 9.58794C27.6102 9.2625 27.5749 8.90441 27.6436 8.55893C27.7123 8.21346 27.8819 7.8961 28.1309 7.64699L33.4746 2.30324C33.8106 1.97877 34.2605 1.79923 34.7276 1.80329C35.1946 1.80735 35.6414 1.99468 35.9716 2.32494C36.3019 2.6552 36.4892 3.10196 36.4933 3.56899C36.4973 4.03603 36.3178 4.48598 35.9933 4.82193L30.6496 10.1657C30.4845 10.3314 30.2882 10.4628 30.072 10.5524C29.8559 10.642 29.6242 10.6879 29.3902 10.6876Z" fill="#5EBC67"/>
<path d="M52.5465 46.3126C52.3125 46.3129 52.0808 46.267 51.8647 46.1774C51.6485 46.0878 51.4523 45.9564 51.2871 45.7907L45.0528 39.5563C44.7283 39.2204 44.5487 38.7704 44.5528 38.3034C44.5569 37.8363 44.7442 37.3896 45.0745 37.0593C45.4047 36.7291 45.8515 36.5417 46.3185 36.5377C46.7855 36.5336 47.2355 36.7131 47.5714 37.0376L53.8058 43.272C54.0549 43.5211 54.2244 43.8385 54.2931 44.1839C54.3618 44.5294 54.3266 44.8875 54.1918 45.2129C54.057 45.5384 53.8287 45.8165 53.5359 46.0123C53.243 46.208 52.8987 46.3125 52.5465 46.3126Z" fill="#5EBC67"/>
<path d="M46.3121 20.4843C45.9599 20.4842 45.6156 20.3797 45.3227 20.184C45.0299 19.9882 44.8016 19.7101 44.6668 19.3846C44.532 19.0592 44.4968 18.7011 44.5655 18.3556C44.6342 18.0102 44.8037 17.6928 45.0528 17.4437L51.2871 11.2093C51.4515 11.0392 51.648 10.9035 51.8653 10.8101C52.0827 10.7168 52.3164 10.6676 52.5529 10.6656C52.7894 10.6635 53.024 10.7086 53.2429 10.7982C53.4618 10.8877 53.6607 11.02 53.8279 11.1872C53.9952 11.3545 54.1274 11.5534 54.217 11.7723C54.3066 11.9912 54.3516 12.2257 54.3496 12.4623C54.3475 12.6988 54.2984 12.9325 54.205 13.1498C54.1117 13.3671 53.976 13.5637 53.8058 13.728L47.5715 19.9624C47.4063 20.1281 47.2101 20.2596 46.9939 20.3491C46.7778 20.4387 46.5461 20.4846 46.3121 20.4843Z" fill="#5EBC67"/>
</svg>
