<svg width="45" height="45" viewBox="0 0 45 45" fill="none" xmlns="http://www.w3.org/2000/svg">
<path d="M43.4892 21.7498C42.493 20.4194 41.0774 19.4635 39.4711 19.0367C40.254 16.7608 40.8325 14.4196 41.1998 12.041C41.3198 11.1764 41.2375 10.2957 40.9593 9.46833C40.6811 8.64093 40.2147 7.88938 39.5967 7.27287C38.9788 6.65635 38.2261 6.19169 37.3981 5.91547C36.57 5.63924 35.6891 5.55899 34.8248 5.68104C34.5886 5.71292 33.8873 5.81604 32.9292 6.00167C33.5225 4.68815 33.8036 3.2551 33.7504 1.81479C33.7426 1.56856 33.6863 1.3263 33.5847 1.10183C33.4832 0.877356 33.3385 0.675077 33.1588 0.506539C32.9791 0.338 32.768 0.206503 32.5375 0.119555C32.307 0.0326073 32.0617 -0.00808889 31.8154 -0.000209581C31.5692 0.00766973 31.3269 0.0639702 31.1025 0.165477C30.878 0.266984 30.6757 0.41171 30.5072 0.591392C30.3386 0.771073 30.2071 0.982191 30.1202 1.21269C30.0333 1.44319 29.9926 1.68856 30.0004 1.93479C30.0324 2.84054 29.8466 3.74074 29.4586 4.55979C29.1874 3.82789 28.8006 3.14422 28.3129 2.53479C27.4841 1.59147 26.4319 0.871011 25.2527 0.439297C24.0736 0.00758199 22.8049 -0.121608 21.5629 0.0635405C20.2011 0.172855 18.8994 0.671408 17.8129 1.49979C16.5847 0.575778 15.0988 0.0579719 13.5623 0.0185405C11.6127 -0.170421 9.66757 0.420859 8.15293 1.66292C7.38386 2.34761 6.76292 3.18234 6.32827 4.1158C5.89362 5.04927 5.65444 6.06175 5.62543 7.09104C5.57398 8.7392 6.05384 10.3602 6.99418 11.7148C5.85024 12.6956 4.96226 13.9401 4.40691 15.3409C3.85157 16.7417 3.64556 18.2566 3.80668 19.7548C2.32384 20.5811 1.16826 21.8898 0.531822 23.4635C-0.104618 25.0372 -0.183622 26.7812 0.30793 28.406C1.59232 32.8751 3.98289 36.9482 7.25856 40.2485C10.4011 43.3127 14.622 45.0191 19.0111 44.9998H25.9898C30.3784 45.0194 34.5988 43.313 37.7404 40.2485C41.0173 36.9488 43.4086 32.8756 44.6929 28.406C45.0277 27.2798 45.0932 26.0907 44.8841 24.9345C44.675 23.7783 44.1972 22.6874 43.4892 21.7498ZM35.3461 9.39354C35.6362 9.35439 35.9315 9.38285 36.2089 9.4767C36.4862 9.57055 36.7381 9.72726 36.9449 9.93457C37.1516 10.1419 37.3077 10.3942 37.4008 10.6718C37.4939 10.9494 37.5216 11.2447 37.4817 11.5348C37.0885 13.997 36.4509 16.414 35.5786 18.7498H30.7767L33.2011 16.3254C33.5426 15.9718 33.7316 15.4982 33.7273 15.0065C33.7231 14.5149 33.5259 14.0446 33.1782 13.697C32.8306 13.3494 32.3603 13.1522 31.8687 13.1479C31.3771 13.1436 30.9034 13.3326 30.5498 13.6742L25.4742 18.7498H22.5698C22.4329 17.7636 22.5269 16.7591 22.8445 15.8155C23.162 14.8719 23.6945 14.015 24.3998 13.3123C25.2004 12.5042 28.2698 10.3123 35.3461 9.39354ZM9.37543 7.21667C9.3867 6.70047 9.50308 6.19199 9.71746 5.72229C9.93184 5.25258 10.2397 4.83151 10.6223 4.48479C11.3959 3.913 12.3569 3.6545 13.3129 3.76104C13.7747 3.74205 14.2353 3.82094 14.6644 3.99253C15.0936 4.16412 15.4816 4.42453 15.8029 4.75667C16.0559 5.03935 16.3657 5.26546 16.7121 5.42022C17.0584 5.57499 17.4336 5.65492 17.8129 5.65479C18.1914 5.65292 18.5653 5.5715 18.9103 5.4158C19.2552 5.26011 19.5636 5.03362 19.8154 4.75104C20.0951 4.45523 20.4307 4.21788 20.8027 4.05276C21.1748 3.88765 21.576 3.79805 21.9829 3.78917C22.6027 3.67877 23.2402 3.72374 23.8383 3.92007C24.4365 4.1164 24.9766 4.45795 25.4104 4.91417C25.9796 5.64287 26.2767 6.54737 26.2504 7.47167C26.2504 7.59354 26.2504 7.85979 26.2504 7.85979C23.7614 8.75609 21.6351 10.4443 20.1979 12.6654C19.014 11.2638 17.4386 10.2474 15.6736 9.74638C13.9086 9.24534 12.0342 9.28243 10.2904 9.85292C9.6682 9.11853 9.34198 8.17863 9.37543 7.21667ZM7.50043 18.7498C7.50043 17.2579 8.09306 15.8272 9.14796 14.7723C10.2028 13.7174 11.6336 13.1248 13.1254 13.1248C14.6173 13.1248 16.048 13.7174 17.1029 14.7723C18.1578 15.8272 18.7504 17.2579 18.7504 18.7498H7.50043ZM41.0929 27.3542C39.9726 31.2113 37.9108 34.7294 35.0929 37.5917C32.6565 39.9589 29.3868 41.2728 25.9898 41.2498H19.0111C15.6131 41.272 12.3426 39.9582 9.90418 37.5917C7.08622 34.7295 5.02434 31.2114 3.90418 27.3542C3.73609 26.7865 3.70349 26.1873 3.80899 25.6047C3.9145 25.0222 4.15517 24.4725 4.51168 23.9998C4.8576 23.5332 5.30827 23.1544 5.8274 22.8938C6.34653 22.6333 6.91959 22.4983 7.50043 22.4998H37.5004C38.0832 22.4965 38.6585 22.6307 39.1797 22.8913C39.7009 23.1519 40.1534 23.5317 40.5004 23.9998C40.8544 24.4737 41.0924 25.024 41.1953 25.6066C41.2982 26.1891 41.2631 26.7876 41.0929 27.3542Z" fill="#5EBC67"/>
</svg>
