<svg width="45" height="45" viewBox="0 0 45 45" fill="none" xmlns="http://www.w3.org/2000/svg">
<path d="M44.9999 11.25V30.1894C44.9999 34.1962 43.4399 37.9631 40.6068 40.7962L36.9505 44.4525C36.5849 44.8181 36.1049 45.0019 35.6249 45.0019C35.1449 45.0019 34.6649 44.8181 34.2993 44.4525C33.5662 43.7194 33.5662 42.5344 34.2993 41.8012L37.9555 38.145C40.0799 36.0206 41.2499 33.195 41.2499 30.1894V11.25C41.2499 10.2169 40.408 9.375 39.3749 9.375C38.3418 9.375 37.4999 10.2169 37.4999 11.25C37.4999 11.25 37.4774 26.3306 37.4755 26.3756C37.4474 27.6169 37.0274 28.8506 36.1855 29.8556L31.3518 34.8881C30.9843 35.2725 30.493 35.4637 29.9999 35.4637C29.5312 35.4637 29.0643 35.2894 28.7005 34.9406C27.9543 34.2225 27.9299 33.0356 28.648 32.2894L33.3974 27.3506C33.6412 27.0562 33.7555 26.6606 33.7499 26.2537C33.7499 26.2537 33.7499 26.2519 33.7499 26.25V26.1675C33.7255 25.7531 33.5718 25.3312 33.2737 24.9975C32.5855 24.2306 31.4024 24.165 30.6374 24.8531L24.7068 30.3112C25.7005 32.1881 26.2518 34.2937 26.2518 36.4537V43.1269C26.2518 44.1619 25.4118 45.0019 24.3768 45.0019C23.3418 45.0019 22.5018 44.1619 22.5018 43.1269V36.4537C22.5018 33.8381 21.3993 31.3256 19.4737 29.5537L14.3474 24.8362C13.6012 24.1669 12.4162 24.2287 11.728 24.9975C11.113 25.6856 11.0962 26.7375 11.6887 27.4444L16.5074 32.4525C17.2255 33.1987 17.203 34.3856 16.4549 35.1037C15.7124 35.8219 14.5218 35.8012 13.8037 35.0512L8.89867 29.9494C8.03617 28.9237 7.5993 27.6994 7.54305 26.4731C7.53367 26.3981 7.49805 11.2519 7.49805 11.2519C7.49805 10.2187 6.65617 9.37687 5.62305 9.37687C4.58992 9.37687 3.74805 10.2187 3.74805 11.2519V30.1912C3.74805 33.1969 4.91805 36.0206 7.04242 38.1469L10.6987 41.8031C11.4318 42.5362 11.4318 43.7212 10.6987 44.4544C10.333 44.82 9.85305 45.0037 9.37305 45.0037C8.89305 45.0037 8.41305 44.82 8.04742 44.4544L4.39117 40.7981C1.55805 37.965 -0.00195312 34.1981 -0.00195312 30.1912V11.25C-0.00195312 8.14875 2.5218 5.625 5.62305 5.625C8.7243 5.625 11.248 8.14875 11.248 11.25V20.9737C13.1212 20.3137 15.283 20.6437 16.8655 22.0594L22.0105 26.7937C22.1737 26.9437 22.318 27.1087 22.4737 27.2662L28.1137 22.0762C29.7093 20.6475 31.8749 20.3156 33.748 20.9756V11.2519C33.748 8.15062 36.2718 5.62687 39.373 5.62687C42.4743 5.62687 44.998 8.15062 44.998 11.2519L44.9999 11.25ZM13.1249 6C13.1249 2.69062 15.6487 0 18.7499 0C20.2162 0 21.5193 0.50625 22.4999 1.36312C23.4805 0.50625 24.7837 0 26.2499 0C29.3512 0 31.8749 2.6925 31.8749 6C31.8749 9.7575 28.0462 13.62 24.8362 16.1962C24.1593 16.74 23.3305 17.0119 22.4999 17.0119C21.6693 17.0119 20.8405 16.74 20.1618 16.1944C16.9518 13.6181 13.1249 9.75562 13.1249 5.99812V6ZM16.8749 6C16.8749 7.695 19.0349 10.4831 22.5112 13.2731C25.9649 10.4831 28.1249 7.695 28.1249 6C28.1249 4.75875 27.283 3.75 26.2499 3.75C25.3855 3.75 24.3749 4.24125 24.3749 5.625C24.3749 6.66 23.5349 7.5 22.4999 7.5C21.4649 7.5 20.6249 6.66 20.6249 5.625C20.6249 4.24125 19.6143 3.75 18.7499 3.75C17.7168 3.75 16.8749 4.76062 16.8749 6Z" fill="#5EBC67"/>
</svg>
