<svg width="45" height="45" viewBox="0 0 45 45" fill="none" xmlns="http://www.w3.org/2000/svg">
<path d="M28.4626 11.7188C27.1126 10.1251 25.1063 9.2251 22.9501 9.39385C21.9001 8.19385 20.3813 7.5001 18.7501 7.5001C17.1188 7.5001 15.4688 8.2876 14.4001 9.58135C11.4751 10.2751 9.37508 12.8626 9.37508 15.9376C9.37508 16.1063 9.37508 16.2563 9.39383 16.4251C8.19383 17.4751 7.50008 18.9938 7.50008 20.6251C7.50008 23.7188 10.0313 26.2501 13.1251 26.2501C13.7813 26.2501 14.4001 26.1376 15.0001 25.9313V35.6251C15.0001 36.6563 15.8438 37.5001 16.8751 37.5001C17.9063 37.5001 18.7501 36.6563 18.7501 35.6251V24.3188C20.1376 24.1313 21.3938 23.4938 22.3876 22.5001H26.2501C29.3438 22.5001 31.8751 19.9688 31.8751 16.8751C31.8751 14.5876 30.5251 12.6001 28.4626 11.7188ZM26.2501 18.7501H21.5438C20.9626 18.7501 20.4001 19.0313 20.0438 19.5001C19.5001 20.2126 18.6938 20.6251 17.8126 20.6251C17.5876 20.6251 17.3251 20.5876 17.0063 20.4938C16.1251 20.2313 15.1876 20.6438 14.7938 21.4501C14.4751 22.1063 13.8376 22.5001 13.1251 22.5001C12.0938 22.5001 11.2501 21.6563 11.2501 20.6251C11.2501 19.9126 11.6438 19.2751 12.3001 18.9563C13.1251 18.5438 13.5188 17.6063 13.2563 16.7438C13.1626 16.4251 13.1251 16.1813 13.1251 15.9376C13.1251 14.4938 14.2126 13.2938 15.6751 13.1626C16.2938 13.1063 16.8376 12.7501 17.1376 12.2251C17.4751 11.6251 18.0751 11.2688 18.7501 11.2688C19.4626 11.2688 20.1001 11.6626 20.4188 12.3188C20.8313 13.1438 21.7688 13.5376 22.6313 13.2751C22.9501 13.1813 23.1938 13.1438 23.4376 13.1438C24.3563 13.1438 25.2376 13.6126 25.7626 14.3813C26.0063 14.7376 26.3626 15.0001 26.7751 15.1126C27.5813 15.3563 28.1251 16.0688 28.1251 16.8938C28.1251 17.9251 27.2813 18.7688 26.2501 18.7688V18.7501ZM37.1251 8.2876C32.5501 2.1751 25.3126 -0.843653 17.7188 0.206347C8.36258 1.48135 0.937577 9.28135 0.0938275 18.7126C-0.374922 23.9063 1.10633 29.0251 4.23758 33.1313C5.13758 34.2938 5.62508 35.8688 5.62508 37.5376V39.3563C5.62508 42.4501 8.15633 44.9813 11.2501 44.9813H24.3751C27.4688 44.9813 30.0001 42.4501 30.0001 39.3563H30.9188C35.6063 39.3563 39.6001 35.8501 40.2188 31.2188L40.6313 28.1063H41.2501C43.6876 28.1063 45.0001 26.1751 45.0001 24.3563C45.0001 21.6938 39.5063 11.1938 37.1251 8.26885V8.2876ZM38.9813 24.3751C38.0438 24.3751 37.2376 25.0688 37.1251 26.0063L36.5063 30.7313C36.1313 33.5251 33.7313 35.6251 30.9376 35.6251H28.1438C27.1126 35.6251 26.2688 36.4688 26.2688 37.5001V39.3751C26.2688 40.4063 25.4251 41.2501 24.3938 41.2501H11.2501C10.2188 41.2501 9.37508 40.4063 9.37508 39.3751V37.5563C9.37508 35.0626 8.60633 32.6813 7.21883 30.8626C4.65008 27.5063 3.43133 23.3063 3.82508 19.0501C4.51883 11.3251 10.5751 4.96885 18.2438 3.91885C19.0501 3.80635 19.8563 3.7501 20.6438 3.7501C25.9501 3.7501 30.8813 6.1876 34.1813 10.5938C36.6376 13.6313 41.0251 22.6876 41.2688 24.3751H39.0188H38.9813Z" fill="#5EBC67"/>
</svg>
