<svg width="43" height="43" viewBox="0 0 43 43" fill="none" xmlns="http://www.w3.org/2000/svg">
<g clip-path="url(#clip0_162_18)">
<path d="M38.2731 14.4623C37.5027 14.3763 36.6803 14.3333 35.8329 14.3333C30.809 14.3333 26.6703 19.1529 25.821 20.2136C24.8087 19.8767 23.6585 19.6689 22.356 19.7083C19.8817 19.7639 17.7245 20.5845 15.9758 21.6039C16.2715 19.3643 16.2195 17.2681 16.1657 15.523C16.1281 14.3727 16.0959 13.2691 16.1837 12.4539L20.2866 11.1477C21.0301 10.9113 21.5354 10.2197 21.5354 9.44029V8.93683L22.949 8.42263C23.7982 8.08579 24.4845 7.40675 24.832 6.56108C25.176 5.72079 25.1689 4.80525 24.807 3.97929C23.7481 1.56233 21.0427 0 17.9162 0C14.6464 0 12.1417 2.12671 11.9625 2.28975C1.24116 10.535 -0.00763361 21.5627 -0.0165919 29.1397C-0.0201753 31.5638 0.977783 33.9073 2.72107 35.5753C5.64328 38.365 11.9697 43.043 21.4977 43.043C29.8935 43.043 35.7702 40.8518 39.2227 39.0135C41.5519 37.7755 42.9977 35.3532 42.9977 32.6961V19.8051C42.9977 17.0638 40.966 14.7669 38.2713 14.4659L38.2731 14.4623ZM39.4162 32.6943C39.4162 34.0237 38.6977 35.2331 37.5403 35.8495C34.4479 37.496 29.1553 39.4597 21.4995 39.4597C13.2185 39.4597 7.73058 35.4015 5.19537 32.9846C4.14187 31.9777 3.56316 30.616 3.56674 29.145C3.5757 21.7472 4.78508 12.332 14.2325 5.06146C14.2487 5.04712 15.9651 3.58512 17.9162 3.58512C19.6828 3.58512 20.894 4.35017 21.3974 5.17792L19.1292 6.00208C18.4197 6.26008 17.9502 6.93196 17.9502 7.68446V8.13237L14.1107 9.35429C13.575 9.5245 13.1522 9.93479 12.964 10.4633C12.4642 11.8752 12.5179 13.6185 12.5806 15.6359C12.6738 18.6799 12.8028 22.4872 10.9574 26.0777C10.8337 26.3214 10.7477 26.5865 10.7477 26.8786C10.7477 27.8676 11.5504 28.6702 12.5394 28.6702C13.1127 28.6702 13.5983 28.3854 13.9262 27.9661C13.962 27.9213 17.5202 23.4028 22.433 23.2952C25.9267 23.2952 27.9818 25.9541 28.0767 26.0938C28.6286 26.9072 29.7394 27.124 30.5582 26.574C31.3788 26.0222 31.5974 24.9095 31.0455 24.0872C30.9882 24.0012 30.3056 22.9942 29.0227 21.9694C30.3575 20.4501 33.1436 17.9202 35.8293 17.9202C36.5442 17.9202 37.2322 17.9579 37.8718 18.0295C38.7497 18.1281 39.4126 18.8913 39.4126 19.8069V32.6979L39.4162 32.6943Z" fill="#5EBC67"/>
</g>
<defs>
<clipPath id="clip0_162_18">
<rect width="43" height="43" fill="white"/>
</clipPath>
</defs>
</svg>
