<svg width="45" height="45" viewBox="0 0 45 45" fill="none" xmlns="http://www.w3.org/2000/svg">
<path d="M35.6738 22.5V33.75C35.6738 34.785 34.8338 35.625 33.7988 35.625C32.7638 35.625 31.9238 34.785 31.9238 33.75V22.5C31.9238 21.465 32.7638 20.625 33.7988 20.625C34.8338 20.625 35.6738 21.465 35.6738 22.5ZM21.7613 12.5944L27.5195 33.2738C27.8476 34.455 26.9607 35.625 25.7326 35.625C24.902 35.625 24.1745 35.0737 23.9476 34.275L22.742 30H12.9807L11.7751 34.275C11.5501 35.0737 10.8207 35.625 9.99008 35.625C8.76383 35.625 7.87508 34.455 8.2032 33.2738L13.9988 12.4462C14.2632 11.3062 15.0132 10.3462 16.0576 9.81187C17.1226 9.26437 18.3451 9.23063 19.5057 9.71813C20.6063 10.1794 21.4501 11.25 21.7632 12.5962L21.7613 12.5944ZM21.6845 26.25L18.0676 13.4344C18.0132 13.2206 17.7095 13.2206 17.657 13.4344L14.0401 26.25H21.6845ZM43.1757 18.75C42.1407 18.75 41.3007 19.59 41.3007 20.625V35.625C41.3007 38.7262 38.777 41.25 35.6757 41.25H9.42383C6.32258 41.25 3.79883 38.7262 3.79883 35.625V9.375C3.79883 6.27375 6.32258 3.75 9.42383 3.75H24.4238C25.4588 3.75 26.2988 2.91 26.2988 1.875C26.2988 0.84 25.4588 0 24.4238 0H9.42383C4.25445 0 0.0488281 4.20563 0.0488281 9.375V35.625C0.0488281 40.7944 4.25445 45 9.42383 45H35.6738C40.8432 45 45.0488 40.7944 45.0488 35.625V20.625C45.0488 19.59 44.2088 18.75 43.1738 18.75H43.1757ZM30.332 9.7125L33.8345 11.1881L35.2313 14.685C35.5332 15.4425 36.2663 15.9375 37.082 15.9375C37.8976 15.9375 38.6288 15.4406 38.9326 14.685L40.322 11.2088L43.7982 9.81938C44.5557 9.5175 45.0507 8.78438 45.0507 7.96875C45.0507 7.15312 44.5538 6.42188 43.7982 6.11812L40.322 4.72875L38.9326 1.2525C38.627 0.496875 37.8938 0 37.0801 0C36.2663 0 35.5332 0.496875 35.2295 1.2525L33.8476 4.70812L30.3976 6.015C29.6363 6.30375 29.1263 7.0275 29.1113 7.84125C29.0963 8.65688 29.5801 9.3975 30.3301 9.71438L30.332 9.7125Z" fill="#5EBC67"/>
</svg>
