<svg width="45" height="39" viewBox="0 0 45 39" fill="none" xmlns="http://www.w3.org/2000/svg">
<path d="M35.625 8.25H24.375C22.6628 8.25628 20.9851 8.73257 19.5251 9.62694C18.065 10.5213 16.8785 11.7994 16.095 13.3219C14.9707 12.4684 13.599 12.0043 12.1875 12C10.447 12 8.77782 12.6914 7.54711 13.9221C6.3164 15.1528 5.625 16.822 5.625 18.5625C5.63049 19.5375 5.85542 20.4988 6.28312 21.375H3.75V2.625C3.75 2.12772 3.55246 1.65081 3.20083 1.29917C2.84919 0.947544 2.37228 0.75 1.875 0.75C1.37772 0.75 0.900806 0.947544 0.549175 1.29917C0.197544 1.65081 0 2.12772 0 2.625L0 36.375C0 36.8723 0.197544 37.3492 0.549175 37.7008C0.900806 38.0525 1.37772 38.25 1.875 38.25C2.37228 38.25 2.84919 38.0525 3.20083 37.7008C3.55246 37.3492 3.75 36.8723 3.75 36.375V32.625H41.25V36.375C41.25 36.8723 41.4475 37.3492 41.7992 37.7008C42.1508 38.0525 42.6277 38.25 43.125 38.25C43.6223 38.25 44.0992 38.0525 44.4508 37.7008C44.8025 37.3492 45 36.8723 45 36.375V17.625C44.997 15.1395 44.0083 12.7567 42.2508 10.9992C40.4933 9.24165 38.1105 8.25298 35.625 8.25ZM18.75 17.625C18.75 16.1332 19.3426 14.7024 20.3975 13.6475C21.4524 12.5926 22.8832 12 24.375 12H35.625C37.1168 12 38.5476 12.5926 39.6025 13.6475C40.6574 14.7024 41.25 16.1332 41.25 17.625V21.375H18.75V17.625ZM9.375 18.5625C9.375 18.0062 9.53995 17.4625 9.84899 17C10.158 16.5374 10.5973 16.177 11.1112 15.9641C11.6251 15.7512 12.1906 15.6955 12.7362 15.804C13.2818 15.9126 13.7829 16.1804 14.1762 16.5738C14.5696 16.9671 14.8374 17.4682 14.946 18.0138C15.0545 18.5594 14.9988 19.1249 14.7859 19.6388C14.573 20.1527 14.2126 20.592 13.75 20.901C13.2875 21.2101 12.7438 21.375 12.1875 21.375C11.4416 21.375 10.7262 21.0787 10.1988 20.5512C9.67132 20.0238 9.375 19.3084 9.375 18.5625ZM3.75 28.875V25.125H41.25V28.875H3.75Z" fill="#5EBC67"/>
</svg>
